<?xml version="1.0" standalone="no"?>
<!DOCTYPE svg PUBLIC "-//W3C//DTD SVG 20010904//EN"
 "http://www.w3.org/TR/2001/REC-SVG-20010904/DTD/svg10.dtd">
<svg version="1.0" xmlns="http://www.w3.org/2000/svg"
 width="2772.000000pt" height="2293.000000pt" viewBox="0 0 2772.000000 2293.000000"
 preserveAspectRatio="xMidYMid meet">

<g transform="translate(0.000000,2293.000000) scale(0.100000,-0.100000)"
fill="#000000" stroke="none">
<path d="M7640 14268 c28 -64 1850 -5073 1850 -5085 0 -19 860 -2377 869
-2383 4 -3 232 -620 506 -1372 l499 -1368 862 0 862 0 39 107 c22 60 246 676
499 1370 252 695 464 1263 470 1263 14 0 -41 148 509 -1365 256 -703 465
-1289 465 -1301 0 -13 -4 -34 -10 -48 l-10 -26 891 0 c877 0 890 0 879 19 -5
11 -10 33 -10 50 0 29 939 2616 979 2696 24 49 844 2304 858 2360 5 22 423
1172 928 2555 505 1383 920 2523 923 2533 4 16 -39 17 -843 15 l-848 -3 -496
-1350 c-273 -742 -506 -1370 -518 -1395 -22 -46 -840 -2268 -872 -2370 -32
-100 -964 -2635 -974 -2648 -6 -7 -14 -9 -18 -5 -4 4 -120 314 -257 688 -137
374 -357 971 -487 1328 l-238 647 -851 0 -851 0 -504 -1375 c-278 -756 -508
-1375 -512 -1375 -9 0 21 -81 -527 1415 -270 737 -685 1871 -922 2520 -238
649 -436 1182 -440 1185 -4 3 -224 597 -490 1320 -265 723 -491 1339 -502
1368 l-19 52 -850 0 -849 0 10 -22z"/>
<path d="M7763 3534 c-23 -9 -65 -36 -93 -61 -144 -129 -173 -381 -63 -542 38
-55 105 -112 252 -216 133 -95 180 -162 189 -270 13 -174 -108 -312 -256 -290
-56 8 -128 44 -177 86 l-35 31 0 -89 0 -90 48 -25 c100 -55 236 -60 336 -15
153 70 251 280 217 463 -23 129 -79 198 -262 330 -196 140 -247 216 -237 353
10 139 91 221 218 221 61 0 99 -15 163 -64 l48 -36 -3 82 -3 83 -60 30 c-52
26 -73 30 -150 32 -61 2 -104 -3 -132 -13z"/>
<path d="M16881 3538 c-57 -20 -134 -99 -169 -175 -64 -142 -90 -407 -73 -747
11 -226 29 -332 70 -421 56 -121 134 -169 271 -169 98 0 154 20 208 74 81 81
101 168 109 488 l6 242 -171 0 -172 0 0 -60 0 -60 101 0 101 0 -5 -202 c-2
-112 -10 -220 -16 -240 -26 -84 -93 -126 -179 -113 -93 14 -146 107 -172 299
-17 134 -24 450 -11 586 24 259 80 366 200 378 84 8 146 -46 171 -149 l12 -47
65 26 c63 25 65 27 59 56 -18 87 -87 185 -159 223 -39 21 -196 28 -246 11z"/>
<path d="M4860 3519 c0 -6 52 -336 115 -733 63 -398 115 -728 115 -734 0 -8
23 -12 65 -12 38 0 65 4 65 10 0 6 38 232 85 502 73 419 101 605 105 703 l1
20 8 -20 c5 -11 11 -56 15 -100 3 -44 41 -313 83 -597 l77 -518 63 0 c35 0 63
3 63 7 0 10 250 1434 257 1461 5 21 3 22 -66 22 -50 0 -71 -4 -71 -12 0 -7
-36 -243 -80 -524 -43 -280 -82 -545 -86 -587 -4 -43 -11 -80 -15 -83 -5 -3
-9 -2 -9 3 0 4 -38 276 -85 603 -47 327 -85 596 -85 598 0 1 -27 2 -60 2 -33
0 -60 -3 -60 -8 0 -4 -38 -228 -85 -499 -46 -270 -90 -535 -96 -590 -14 -113
-24 -135 -33 -66 -3 26 -38 299 -78 606 l-73 557 -67 0 c-42 0 -68 -4 -68 -11z"/>
<path d="M6641 3478 c-21 -99 -281 -1430 -281 -1434 0 -3 32 -4 72 -2 l72 3
26 150 26 150 161 3 161 2 17 -92 c9 -51 21 -121 27 -155 l11 -63 74 0 c66 0
74 2 69 18 -3 9 -68 337 -146 727 -78 391 -143 718 -146 728 -4 14 -17 17 -69
17 l-64 0 -10 -52z m94 -269 c9 -73 40 -270 68 -436 l53 -303 -139 0 -139 0 6
28 c10 48 94 614 106 712 12 107 19 144 25 138 3 -2 12 -65 20 -139z"/>
<path d="M8670 3470 l0 -60 110 0 110 0 0 -685 0 -685 65 0 65 0 0 685 0 685
115 0 115 0 0 60 0 60 -290 0 -290 0 0 -60z"/>
<path d="M9780 2785 l0 -745 235 0 235 0 0 60 0 60 -165 0 -165 0 0 300 0 300
160 0 160 0 0 60 0 60 -160 0 -160 0 0 265 0 265 165 0 165 0 0 60 0 60 -235
0 -235 0 0 -745z"/>
<path d="M11796 3518 c-4 -13 -206 -1456 -206 -1470 0 -5 29 -8 65 -8 36 0 65
3 65 6 0 3 27 222 60 487 34 265 64 541 67 612 l7 130 12 -60 c6 -33 49 -311
95 -618 l83 -558 55 3 55 3 83 480 c45 264 89 540 97 614 9 73 17 135 19 138
6 5 7 -4 69 -669 l52 -568 69 0 c60 0 68 2 64 18 -3 9 -45 344 -93 745 l-88
727 -58 0 c-52 0 -58 -2 -63 -22 -15 -70 -176 -1048 -184 -1127 -6 -51 -12
-96 -15 -98 -3 -3 -7 10 -10 28 -3 19 -45 300 -93 624 l-88 590 -58 3 c-40 2
-58 -1 -61 -10z"/>
<path d="M13345 3518 c-7 -21 -285 -1449 -285 -1464 0 -11 16 -14 69 -14 63 0
69 2 74 23 3 12 15 82 28 155 l22 132 161 -2 161 -3 18 -100 c9 -55 22 -124
28 -152 l10 -53 70 0 c48 0 69 4 69 13 0 6 -66 342 -146 745 l-147 732 -64 0
c-42 0 -65 -4 -68 -12z m85 -303 c6 -55 36 -242 66 -416 30 -174 54 -319 54
-323 0 -3 -61 -6 -135 -6 -79 0 -135 4 -135 9 0 6 20 142 44 303 41 270 76
518 76 542 0 6 3 6 9 1 5 -6 15 -55 21 -110z"/>
<path d="M14300 2785 l0 -745 56 0 56 0 -4 594 c-1 327 0 589 3 583 4 -7 14
-43 24 -82 9 -38 94 -299 188 -580 l172 -510 58 -3 57 -3 0 746 0 745 -55 0
-56 0 3 -575 c2 -316 1 -575 -2 -575 -5 0 -91 255 -318 948 l-67 202 -57 0
-58 0 0 -745z"/>
<path d="M15725 3508 c-9 -40 -285 -1451 -285 -1460 0 -7 139 -13 140 -5 1 1
13 70 28 152 l27 150 161 3 160 2 12 -62 c6 -35 19 -105 28 -155 l17 -93 72 0
72 0 -138 693 c-77 380 -144 716 -150 745 l-10 52 -65 0 c-58 0 -64 -2 -69
-22z m89 -304 c8 -71 38 -260 66 -420 27 -159 50 -295 50 -301 0 -10 -34 -13
-135 -13 -74 0 -135 1 -135 3 0 2 20 134 44 294 25 159 52 346 61 414 15 121
24 164 30 157 2 -2 10 -62 19 -134z"/>
<path d="M17890 2785 l0 -745 235 0 235 0 0 60 0 60 -165 0 -165 0 0 300 0
300 160 0 160 0 0 60 0 60 -160 0 -160 0 0 265 0 265 165 0 165 0 0 60 0 60
-235 0 -235 0 0 -745z"/>
<path d="M19096 3518 c-5 -13 -207 -1457 -206 -1470 0 -13 130 -9 130 3 0 6
27 227 60 491 33 265 64 538 67 607 6 100 9 118 15 86 11 -57 178 -1167 178
-1183 0 -9 15 -12 57 -10 l57 3 87 510 c48 281 91 551 95 600 4 50 10 99 14
110 8 22 2 77 71 -662 l53 -563 69 0 c60 0 68 2 63 18 -2 9 -44 344 -93 745
l-88 727 -57 0 c-52 0 -58 -2 -63 -22 -15 -69 -168 -993 -181 -1098 -8 -68
-17 -126 -19 -128 -5 -5 2 -50 -103 653 l-88 590 -57 3 c-40 2 -58 -1 -61 -10z"/>
<path d="M20470 2785 l0 -745 235 0 235 0 0 60 0 60 -165 0 -165 0 0 300 0
300 160 0 160 0 0 60 0 60 -160 0 -160 0 0 265 0 265 165 0 165 0 0 60 0 60
-235 0 -235 0 0 -745z"/>
<path d="M21540 2785 l0 -745 61 0 61 0 -5 568 c-2 312 -8 577 -12 590 -5 14
-3 22 3 22 6 0 16 -19 21 -42 6 -24 92 -289 192 -590 l180 -548 60 0 59 0 0
745 0 745 -61 0 -61 0 4 -582 3 -583 -158 480 c-87 264 -173 525 -191 580
l-33 100 -61 3 -62 3 0 -746z"/>
<path d="M22700 3470 l0 -60 110 0 110 0 0 -685 0 -685 70 0 70 0 0 685 0 685
110 0 110 0 0 60 0 60 -290 0 -290 0 0 -60z"/>
</g>
</svg>
